<?xml version="1.0" standalone="no"?>
<!DOCTYPE svg PUBLIC "-//W3C//DTD SVG 20010904//EN"
 "http://www.w3.org/TR/2001/REC-SVG-20010904/DTD/svg10.dtd">
<svg version="1.0" xmlns="http://www.w3.org/2000/svg"
 width="720.000000pt" height="480.000000pt" viewBox="0 0 720.000000 480.000000"
 preserveAspectRatio="xMidYMid meet">
<metadata>
Created by potrace 1.15, written by Peter Selinger 2001-2017
</metadata>
<g transform="translate(0.000000,480.000000) scale(0.100000,-0.100000)"
fill="#000000" stroke="none">
<path d="M0 2400 l0 -2400 565 0 564 0 9 33 c5 17 19 56 31 85 12 29 17 51 11
47 -12 -7 -13 28 -2 53 5 9 18 36 30 59 12 23 22 49 22 57 0 9 6 16 13 16 9 0
8 3 -2 9 -11 7 -10 11 5 20 16 10 14 11 -13 6 -20 -4 -33 -3 -33 4 0 5 17 13
37 17 21 4 32 9 24 12 -11 4 -11 6 0 13 12 8 11 11 -1 19 -9 6 -10 10 -3 10
15 0 10 148 -6 178 -6 11 -11 51 -11 87 0 47 -5 71 -15 82 -12 11 -14 26 -9
60 5 33 3 48 -10 62 -9 10 -14 25 -10 34 3 10 -4 22 -20 32 -20 13 -26 26 -26
51 0 20 -8 42 -19 53 -15 15 -19 28 -14 56 5 31 3 37 -16 42 -18 4 -21 13 -21
53 0 33 -5 50 -15 54 -9 3 -15 18 -15 39 0 19 -7 40 -15 47 -9 8 -12 22 -8 41
6 31 -11 77 -34 92 -16 10 -16 18 -2 54 16 37 11 102 -10 140 -7 14 -5 28 6
50 13 27 13 36 1 60 -14 29 -14 41 -3 158 4 39 8 121 9 182 2 62 8 118 14 126
6 7 14 36 18 65 4 30 13 59 20 67 8 7 14 18 14 23 0 5 7 15 15 22 9 7 14 19
11 27 -3 8 2 26 13 41 37 54 91 150 91 161 0 6 4 19 9 29 5 9 16 32 23 50 7
17 16 32 20 32 5 0 8 6 8 13 0 13 41 63 117 144 23 25 45 53 48 64 9 26 23 24
37 -7 10 -21 9 -27 -3 -35 -12 -8 -12 -10 1 -19 8 -5 21 -8 28 -5 7 3 27 -2
44 -11 38 -20 46 -12 17 15 l-23 21 37 0 c30 0 35 3 30 18 -3 9 -19 29 -35 44
-15 15 -28 36 -28 46 0 11 -11 27 -25 36 -23 15 -35 46 -17 46 12 0 14 58 2
65 -5 3 -10 19 -10 35 0 16 -4 40 -10 54 -6 17 -6 26 0 26 15 0 12 89 -5 118
-31 58 -112 279 -146 402 -7 25 -15 49 -17 54 -3 5 -7 31 -8 58 -2 28 -8 75
-14 106 -19 102 16 301 61 349 71 74 211 87 369 33 126 -43 194 -83 335 -197
22 -18 85 -68 140 -111 55 -44 123 -100 150 -126 28 -25 53 -46 58 -46 4 0 7
-7 7 -15 0 -8 9 -15 20 -15 13 0 22 -9 26 -27 4 -16 20 -43 36 -62 16 -18 27
-40 24 -48 -3 -8 -1 -11 4 -8 6 3 10 1 10 -5 0 -6 5 -8 12 -4 6 4 9 3 7 -2
-34 -66 -33 -63 -14 -84 24 -27 35 -25 35 6 0 14 4 23 10 19 6 -3 10 0 10 7 0
10 2 10 9 0 4 -8 12 -14 17 -14 14 1 25 44 14 57 -7 8 -7 21 -1 36 10 24 10
23 12 -6 2 -16 4 -39 5 -50 1 -11 2 -26 3 -33 1 -19 27 7 34 34 4 18 5 18 6
-1 0 -12 -4 -26 -11 -33 -7 -7 -8 -12 -2 -12 6 0 16 11 22 25 14 30 16 137 3
117 -4 -7 -6 -25 -4 -40 2 -15 0 -21 -3 -14 -9 19 -24 14 -17 -5 5 -15 3 -14
-10 2 -9 11 -16 25 -17 30 0 6 4 3 10 -5 8 -12 10 -12 15 3 4 9 -2 31 -15 51
-16 28 -19 39 -11 55 15 27 -6 39 -25 15 -13 -18 -15 -18 -28 -2 -7 10 -29 25
-50 33 -20 8 -36 22 -36 31 0 10 -6 13 -18 10 -11 -4 -26 2 -38 12 -11 11 -33
25 -49 33 -44 21 -40 51 9 62 29 7 46 6 73 -7 18 -9 45 -16 58 -16 30 0 105
-29 105 -41 0 -5 7 -6 15 -3 8 4 22 0 31 -7 9 -7 42 -15 73 -16 31 -1 57 -7
59 -12 3 -9 81 -5 91 5 2 2 10 -1 18 -7 10 -9 13 -8 13 5 0 9 5 16 10 16 6 0
10 -8 10 -17 0 -16 2 -16 11 -3 9 12 10 11 4 -5 -4 -11 -8 -27 -9 -35 0 -8 -3
-17 -6 -20 -3 -3 -13 -20 -23 -39 -15 -28 -15 -32 -2 -27 9 3 15 0 15 -9 0 -8
-6 -12 -13 -9 -9 3 -12 -7 -9 -38 l4 -43 -25 28 c-27 30 -42 19 -25 -18 9 -20
9 -20 -6 -1 -9 11 -16 16 -16 10 0 -5 -5 -1 -11 9 -12 20 -33 23 -26 3 3 -8 2
-27 -2 -43 l-9 -28 -9 25 c-10 25 -10 25 -17 3 -4 -12 -4 -38 0 -58 5 -28 3
-35 -10 -35 -9 0 -16 8 -16 21 0 12 -4 18 -11 13 -7 -4 -9 -25 -7 -55 6 -60
-4 -63 -25 -7 -9 23 -19 39 -22 36 -3 -3 1 -21 9 -40 16 -37 18 -98 4 -98 -4
0 -8 21 -8 48 l-1 47 -13 -30 c-7 -16 -11 -34 -8 -39 2 -4 -1 -12 -8 -16 -11
-6 -10 -20 0 -68 16 -70 29 -72 31 -4 1 26 3 38 6 27 10 -40 23 -39 24 0 0 32
2 36 9 20 12 -29 12 -123 -1 -130 -5 -4 -8 -21 -5 -38 3 -18 3 -26 0 -19 -3 6
-11 12 -18 12 -7 0 -18 10 -24 23 -11 19 -11 18 -6 -13 6 -31 5 -33 -10 -21
-20 17 -21 3 -2 -18 10 -11 12 -21 6 -31 -8 -12 -10 -11 -10 6 0 13 -8 24 -20
27 -18 4 -20 2 -14 -16 4 -12 11 -24 16 -25 5 -2 22 -30 38 -63 17 -32 37 -59
45 -59 8 0 15 -5 15 -12 0 -6 2 -9 5 -6 8 8 -6 39 -15 33 -4 -3 -14 3 -21 12
-11 12 -11 17 -2 20 7 2 9 11 6 19 -10 26 5 15 27 -21 12 -19 22 -46 23 -60 1
-14 7 -29 12 -33 6 -4 19 -20 29 -36 14 -22 15 -30 6 -36 -10 -6 -9 -19 4 -59
9 -29 14 -56 11 -60 -2 -5 2 -26 11 -47 9 -20 17 -59 18 -85 1 -26 10 -58 18
-71 9 -14 20 -46 23 -73 7 -46 8 -47 21 -24 7 13 13 19 14 12 0 -7 7 -10 15
-7 8 4 13 10 10 14 -3 5 -1 11 5 15 5 3 10 19 10 35 0 16 4 31 9 34 10 7 5
-64 -8 -109 -5 -16 -9 -43 -9 -60 0 -16 2 -22 5 -13 2 10 10 15 19 11 15 -6
20 12 5 21 -5 3 -7 16 -3 28 l5 22 9 -23 c4 -13 13 -19 19 -15 8 4 9 0 4 -15
-5 -16 -3 -20 9 -15 17 7 21 -6 7 -22 -4 -5 -11 -27 -14 -49 -5 -35 -4 -38 7
-22 8 10 17 39 21 65 l8 47 9 -34 c6 -21 5 -44 -1 -63 -6 -17 -8 -34 -5 -39 3
-5 2 -14 -2 -21 -4 -7 -9 -26 -11 -42 l-3 -30 26 34 c15 19 24 27 21 18 -5
-13 -1 -18 11 -19 10 0 12 -3 5 -6 -7 -2 -13 -12 -13 -21 0 -9 -9 -32 -21 -51
-16 -27 -17 -32 -5 -28 9 4 16 2 16 -4 0 -6 5 -7 10 -4 6 3 10 1 10 -4 0 -6 6
-10 12 -8 8 1 13 -10 13 -30 1 -42 12 -52 24 -22 9 23 10 23 10 2 1 -12 -3
-33 -9 -47 -12 -33 8 -36 35 -6 14 16 20 17 27 8 4 -7 8 -8 8 -3 0 19 -18 38
-29 31 -7 -4 -11 1 -11 13 0 10 -3 28 -6 38 -6 16 -5 16 10 -2 12 -14 16 -16
14 -5 -3 25 11 54 33 68 25 16 40 5 44 -30 1 -13 3 -27 4 -32 0 -4 10 -6 20
-3 14 3 21 -2 26 -20 8 -34 1 -39 -28 -20 l-25 16 10 -40 c6 -21 15 -39 20
-39 6 0 8 -7 4 -15 -3 -8 -1 -15 4 -15 6 0 10 5 10 12 0 9 3 9 12 0 18 -18 38
-15 38 6 0 15 -2 15 -10 2 -9 -13 -12 -13 -21 3 -6 9 -14 15 -18 13 -5 -3 -13
6 -19 19 -9 20 -9 23 3 18 8 -3 15 -9 15 -13 0 -16 32 -19 54 -5 12 8 26 12
31 8 4 -5 5 2 2 15 -3 12 -2 20 3 17 4 -2 8 7 8 22 0 15 4 29 10 31 6 2 8 10
5 18 -3 7 -10 11 -15 8 -6 -4 -2 5 7 20 9 14 21 23 26 20 5 -3 9 4 9 16 0 12
5 18 10 15 6 -3 10 1 10 9 0 8 9 20 20 26 16 8 20 21 20 60 0 28 4 50 9 50 4
0 6 -12 4 -27 -4 -22 -2 -25 6 -13 5 8 13 39 17 68 10 83 19 68 18 -30 -1 -61
-5 -93 -14 -98 -8 -5 -9 -13 -4 -21 12 -21 18 -151 10 -214 -3 -16 -10 -72
-16 -122 -7 -51 -16 -91 -19 -89 -4 3 -7 -5 -6 -17 0 -12 -4 -23 -10 -24 -5
-2 -10 5 -10 14 0 9 -6 17 -13 19 -7 1 -8 0 -2 -3 5 -2 7 -9 4 -14 -3 -6 -11
-6 -20 2 -7 6 -11 16 -7 22 4 7 0 8 -11 4 -14 -6 -17 -3 -12 8 3 9 2 14 -3 11
-5 -3 -17 6 -27 19 -18 24 -57 34 -68 17 -3 -5 4 -14 14 -22 21 -15 17 -32 -5
-24 -8 4 -12 10 -9 15 3 5 -2 9 -11 9 -13 0 -14 -4 -5 -21 9 -17 8 -24 -9 -38
-24 -21 -27 -37 -8 -44 9 -4 10 -7 0 -18 -10 -9 -13 -10 -13 -1 0 7 -9 12 -19
12 -11 0 -23 4 -26 10 -3 5 -15 10 -26 10 -17 0 -18 -3 -8 -21 7 -15 18 -20
34 -17 23 5 23 4 7 -17 -11 -15 -19 -19 -24 -12 -4 6 -10 9 -13 5 -4 -3 7 -19
24 -34 17 -15 31 -33 31 -39 0 -7 12 -24 26 -38 22 -22 24 -29 13 -48 -10 -20
-8 -26 20 -51 45 -40 42 -60 -9 -55 -34 3 -44 0 -60 -21 -11 -13 -20 -35 -20
-47 0 -12 -7 -28 -15 -35 -14 -11 -19 -7 -16 13 1 10 -7 9 -69 -7 -57 -15
-126 -14 -123 1 1 4 5 17 8 28 5 15 4 16 -3 6 -6 -8 -17 -11 -26 -8 -9 4 -16
2 -16 -2 0 -5 6 -11 13 -14 7 -3 1 -9 -15 -15 -58 -24 -42 -54 52 -96 58 -26
58 -26 53 -64 -4 -28 0 -43 16 -61 12 -13 21 -28 21 -34 0 -5 7 -7 15 -4 8 4
17 2 20 -3 3 -4 0 -10 -5 -12 -6 -2 -13 -17 -16 -33 -9 -54 -28 -100 -51 -121
-12 -12 -24 -20 -27 -17 -3 3 -8 -6 -12 -21 -4 -16 -13 -26 -24 -26 -10 0 -20
-6 -23 -14 -4 -10 -15 -13 -31 -10 -21 4 -26 0 -26 -17 0 -12 -8 -23 -20 -26
-11 -3 -20 -10 -20 -15 0 -5 -8 -2 -17 8 -17 17 -19 15 -30 -32 -6 -27 -12
-43 -12 -36 -1 17 -31 47 -32 33 -6 -64 0 -111 19 -148 21 -40 42 -63 42 -46
0 5 -7 18 -15 29 -8 10 -14 33 -14 49 0 27 2 25 15 -15 9 -25 25 -53 37 -64
l22 -19 -22 7 c-14 5 -23 3 -23 -3 0 -6 5 -11 10 -11 6 0 10 -5 10 -12 0 -6
-7 -4 -18 5 -10 10 -21 14 -24 11 -4 -3 -9 9 -13 27 -7 30 -9 31 -20 15 -8
-10 -16 -13 -19 -7 -4 5 1 14 10 19 13 7 14 13 6 28 -8 13 -11 15 -12 4 0 -10
-3 -11 -10 -4 -8 8 -7 19 1 38 11 22 10 29 -1 36 -9 6 -22 -1 -42 -23 -23 -28
-27 -29 -21 -9 6 26 -5 29 -23 5 -18 -23 -17 -43 0 -43 18 0 26 -21 27 -73 1
-40 2 -40 9 -12 7 28 8 28 9 5 1 -14 10 -36 21 -50 l20 -25 0 23 c0 13 4 20
10 17 6 -4 10 5 10 20 0 14 4 23 10 20 5 -3 7 -18 4 -34 -5 -22 0 -35 24 -59
33 -34 47 -87 33 -126 -6 -14 -7 -25 -3 -25 20 3 32 -3 32 -16 0 -8 -4 -15
-10 -15 -5 0 -10 -7 -10 -15 0 -8 -8 -15 -17 -15 -11 -1 -6 -6 12 -14 21 -9
32 -10 37 -2 4 7 13 4 26 -7 11 -10 26 -15 36 -11 20 8 20 1 0 -65 -10 -35
-20 -51 -28 -48 -8 3 -18 1 -24 -5 -15 -15 -32 0 -32 30 l-1 27 -13 -30 c-24
-55 -76 -77 -100 -43 -11 16 -21 19 -46 13 -19 -4 -36 -2 -46 6 -11 9 -18 9
-26 1 -7 -7 -19 -7 -36 -1 -19 7 -29 6 -42 -6 -17 -15 -19 -15 -30 2 -7 11
-13 14 -16 7 -3 -6 -16 -9 -29 -6 -14 2 -32 -1 -40 -8 -11 -10 -18 -9 -30 4
-21 21 -31 20 -48 -4 -15 -22 -27 -17 -27 10 0 10 -6 23 -13 29 -18 14 -37
-25 -36 -72 0 -27 2 -29 9 -12 5 11 9 14 9 6 1 -7 7 -11 16 -7 8 3 15 2 15 -3
0 -4 14 -6 30 -3 25 4 30 1 30 -17 0 -12 6 -21 15 -21 8 0 14 3 14 8 -1 4 0
16 1 27 1 17 4 16 14 -8 7 -15 15 -24 19 -21 4 4 7 2 7 -6 0 -10 3 -10 15 0
12 10 15 10 15 -4 0 -14 -11 -21 -32 -17 -5 0 -8 -6 -8 -14 0 -20 -10 -19 -26
3 -13 16 -14 15 -20 -6 -6 -20 -36 -36 -60 -31 -23 4 -44 -3 -77 -25 -19 -13
-38 -22 -40 -19 -3 2 -21 0 -41 -5 -23 -7 -38 -7 -42 -1 -3 6 -15 7 -25 4 -11
-4 -40 -8 -65 -10 -25 -1 -51 -8 -57 -14 -9 -9 72 -10 318 -7 378 5 392 6 374
17 -11 6 -10 9 3 14 10 4 22 4 28 0 6 -4 22 1 36 10 14 9 28 14 31 11 3 -3 14
-1 25 5 45 24 230 26 266 3 26 -17 76 -14 110 7 15 9 25 10 30 4 12 -17 71
-47 81 -41 5 3 20 -3 34 -14 25 -20 40 -20 476 -20 343 1 451 4 451 13 0 14
54 47 76 47 8 0 14 -7 14 -15 0 -17 11 -19 26 -6 5 4 30 11 57 15 46 5 47 5
41 -18 -4 -18 -1 -25 18 -30 40 -10 61 -7 84 15 19 18 25 19 46 8 l23 -13 -25
-7 c-14 -4 224 -7 529 -8 475 -1 552 1 542 13 -8 10 -9 16 -2 21 6 3 10 16 10
28 -1 12 1 46 5 75 5 45 3 54 -14 64 -11 7 -20 18 -20 25 0 7 -4 13 -9 13 -5
0 -12 18 -16 40 -7 42 -20 52 -28 22 -3 -11 -5 -8 -6 9 0 14 8 34 19 44 11 10
20 24 20 32 0 8 12 13 35 13 34 0 46 -12 25 -25 -6 -3 -10 -10 -10 -16 0 -5 9
-4 19 3 17 10 23 9 40 -6 19 -18 21 -18 21 -2 0 35 -67 76 -123 76 -31 0 -37
5 -55 43 -21 44 -30 91 -36 187 -2 30 -9 56 -15 58 -6 2 -11 12 -11 22 0 10
-4 21 -9 24 -4 3 -11 33 -14 66 -4 34 -11 69 -16 78 -5 10 -11 47 -12 83 -2
65 -17 181 -26 209 -7 18 -12 44 -17 90 -8 61 -14 94 -21 113 -4 9 -3 17 3 17
12 0 5 64 -10 92 -4 10 -10 64 -13 120 -3 57 -10 130 -15 163 -6 33 -12 89
-13 125 -2 36 -6 70 -9 75 -9 16 -20 73 -24 133 -4 59 -10 107 -13 107 -5 0
-12 42 -17 100 -3 33 -10 62 -15 63 -5 2 -9 10 -9 17 0 7 -6 16 -12 18 -10 4
-10 6 -1 6 7 1 18 11 24 23 6 13 8 20 4 16 -4 -4 -17 -2 -28 4 l-20 10 21 12
c20 11 20 13 5 44 -15 30 -33 43 -33 23 0 -5 -43 -9 -95 -9 -75 1 -98 5 -110
18 -14 15 -12 17 15 17 16 0 27 -4 24 -9 -3 -4 33 -8 79 -8 63 0 88 4 97 15
10 12 9 16 -6 22 -16 6 -16 7 2 15 12 5 3 6 -24 3 -24 -3 -55 -13 -70 -23 -21
-13 -24 -14 -18 -2 7 11 6 12 -3 4 -13 -12 -61 -7 -61 7 0 5 -8 9 -17 9 -16 0
-16 -2 -3 -11 13 -9 12 -10 -2 -5 -10 3 -20 1 -23 -4 -3 -5 -18 -5 -33 -1 -15
4 -38 4 -52 0 l-25 -7 25 -2 25 -2 -25 -7 c-17 -5 -21 -9 -12 -15 7 -4 22 -4
34 -1 18 6 19 5 7 -8 -8 -8 -18 -12 -23 -9 -11 6 -153 15 -145 9 14 -13 51
-28 45 -18 -9 13 0 14 23 2 10 -6 46 -11 80 -13 35 -2 65 -6 68 -10 2 -5 -3
-8 -11 -8 -28 0 -17 -19 12 -20 64 -3 80 -5 75 -14 -6 -8 -64 -3 -112 10 -15
5 -22 3 -18 -3 4 -6 -14 -8 -48 -5 -37 3 -55 1 -55 -7 0 -6 -9 -11 -19 -11
-11 0 -23 -4 -26 -10 -3 -5 -21 -9 -38 -9 l-32 2 35 7 c19 4 32 9 28 10 -19 6
-32 8 -95 9 -52 1 -64 4 -53 12 12 9 11 9 -5 4 -31 -12 -75 -14 -75 -4 0 18
-28 9 -33 -11 -5 -20 16 -30 93 -43 14 -2 4 -5 -22 -6 -27 0 -48 -6 -48 -11 0
-6 6 -10 13 -9 6 1 23 1 37 0 20 -1 22 -3 10 -11 -12 -8 -10 -10 10 -10 18 0
21 -3 11 -9 -19 -12 23 -34 49 -26 26 8 27 -21 3 -33 -22 -11 -74 0 -55 12 6
4 17 4 24 0 7 -4 8 -3 4 4 -10 17 -46 15 -46 -3 0 -7 -8 -19 -17 -25 -15 -9
-14 -10 7 -5 l25 6 -23 -20 c-12 -11 -28 -21 -35 -24 -6 -2 -8 -8 -4 -13 4 -5
12 -2 17 6 6 8 10 11 10 6 0 -5 6 -3 14 3 8 6 18 11 22 10 5 -1 18 0 29 1 17
2 17 3 -5 10 l-25 8 28 1 c15 1 37 -8 48 -18 l21 -19 -24 -1 c-46 -2 -68 -5
-68 -12 0 -4 -10 -9 -22 -12 -13 -3 -34 -8 -48 -12 -20 -5 -22 -5 -10 5 12 10
10 10 -10 5 -14 -4 -37 -8 -52 -9 -14 0 -24 -4 -21 -8 2 -5 -2 -8 -10 -8 -8 0
-17 -7 -21 -15 -3 -8 -13 -15 -22 -15 -10 0 -14 -5 -10 -16 3 -8 2 -12 -4 -9
-6 3 -10 1 -10 -4 0 -6 -5 -11 -11 -11 -6 0 -9 7 -5 15 5 13 2 14 -17 3 -19
-11 -20 -13 -4 -16 9 -2 14 -8 11 -14 -14 -22 42 6 69 34 16 16 32 27 35 23 4
-4 -2 -13 -13 -21 -17 -13 -18 -16 -5 -24 11 -7 12 -10 2 -10 -8 0 -27 -13
-44 -30 -16 -16 -37 -30 -46 -30 -13 0 -11 5 8 20 27 21 21 27 -11 10 -15 -8
-19 -7 -19 4 0 21 -20 30 -33 16 -9 -10 -8 -12 5 -7 31 11 24 -26 -12 -60 -19
-18 -29 -33 -22 -33 6 0 12 -5 12 -11 0 -5 -8 -9 -19 -7 -11 2 -27 -8 -39 -22
-16 -20 -22 -22 -35 -12 -11 10 -17 10 -25 -1 -14 -17 -12 -61 2 -47 13 13 29
13 21 0 -4 -6 10 -3 29 7 20 9 36 20 36 25 0 5 -13 2 -30 -7 -36 -19 -39 -7
-4 18 24 18 26 18 38 2 12 -16 15 -16 42 -2 27 15 27 16 6 17 -20 0 -21 3 -12
20 7 14 7 20 0 20 -15 0 -12 17 5 24 8 3 14 0 12 -6 -1 -6 4 -13 12 -16 8 -3
11 0 7 7 -4 6 -2 11 3 11 14 0 14 -13 -1 -28 -7 -7 -8 -12 -3 -12 6 0 23 14
39 30 21 21 39 30 62 30 18 0 41 3 51 7 16 6 16 5 4 -10 -7 -9 -16 -15 -20
-13 -4 3 -13 1 -21 -5 -23 -14 5 -12 70 6 30 8 60 15 65 15 20 -1 -41 -29 -62
-30 -13 0 -23 -4 -23 -10 0 -5 -9 -10 -20 -10 -11 0 -20 -5 -20 -11 0 -6 8 -8
18 -5 12 4 19 1 19 -8 0 -8 -11 -17 -24 -21 -13 -3 -21 -10 -18 -15 3 -5 18
-5 35 2 33 11 65 4 55 -12 -4 -6 -16 -8 -28 -5 -20 6 -21 5 -5 -8 10 -8 15
-17 11 -20 -10 -11 -25 -8 -18 3 3 5 2 10 -4 10 -5 0 -13 -4 -16 -10 -3 -5
-15 -10 -25 -10 -10 0 -22 -5 -26 -11 -4 -6 1 -9 12 -8 11 2 24 0 30 -4 14 -8
77 16 67 26 -3 4 5 7 18 7 l24 -1 -28 -17 c-15 -9 -25 -23 -22 -30 3 -9 -1
-11 -15 -7 -10 3 -35 3 -54 0 -30 -6 -34 -10 -27 -28 6 -17 17 -22 46 -24 62
-2 62 -19 -1 -26 -82 -8 -87 -24 -6 -20 46 2 61 0 46 -6 -29 -13 -204 -23
-204 -11 0 5 17 11 38 13 l37 4 -42 1 c-24 1 -43 -2 -43 -8 0 -5 -8 -10 -17
-11 -10 0 -4 -6 14 -12 17 -7 35 -15 39 -19 12 -13 41 -9 54 7 7 9 27 15 49
14 20 -1 28 -3 19 -6 -10 -2 -18 -9 -18 -15 0 -6 11 -7 28 -3 21 5 24 4 15 -6
-9 -9 -46 -12 -118 -11 -60 0 -105 -3 -105 -9 0 -5 9 -9 20 -9 11 0 20 -4 20
-10 0 -6 32 -10 77 -10 105 0 86 -10 -33 -17 -54 -3 -110 -10 -124 -14 -20 -7
-17 -8 12 -4 38 6 62 -9 31 -19 -10 -3 1 -4 25 -3 67 4 49 -10 -30 -23 -101
-16 -104 -19 -21 -18 40 1 71 4 69 7 -2 3 37 7 87 7 55 1 84 -2 72 -7 -11 -4
-37 -8 -57 -8 -21 -1 -38 -6 -38 -12 0 -6 -9 -8 -22 -4 -22 6 -22 5 1 -8 l25
-15 -35 -8 c-19 -4 -38 -7 -42 -6 -5 2 -6 -2 -2 -8 3 -5 -3 -10 -14 -10 -12 0
-21 -4 -21 -10 0 -5 -19 -10 -42 -10 -24 0 -52 -8 -63 -16 -20 -16 -20 -16 3
-9 13 4 22 2 22 -4 0 -6 17 -12 38 -13 37 -1 37 -1 -8 -7 l-45 -6 65 -13 c36
-7 97 -17 135 -22 69 -11 179 -38 264 -67 24 -8 51 -16 60 -18 114 -25 141
-40 101 -53 -7 -3 -10 0 -6 6 4 6 -2 8 -16 4 -20 -5 -19 -7 13 -21 18 -9 39
-21 44 -27 16 -17 42 -23 53 -12 7 7 17 6 33 -2 21 -12 21 -13 4 -23 -19 -10
-18 -11 0 -18 29 -11 47 -11 40 1 -12 20 11 9 43 -19 17 -16 41 -33 53 -36 11
-4 18 -9 16 -12 -3 -2 -28 7 -57 22 -28 14 -61 25 -73 23 -17 -2 -11 -8 28
-27 28 -14 56 -33 63 -42 7 -10 20 -20 30 -22 9 -2 7 -3 -5 -2 -37 4 -28 -27
27 -86 51 -55 59 -72 38 -85 -7 -4 -8 -3 -4 4 4 7 2 12 -3 12 -6 0 -11 6 -11
13 0 8 -24 27 -52 42 -29 16 -59 35 -67 43 -8 7 -24 11 -36 8 -14 -4 -32 1
-46 13 -15 11 -31 16 -43 11 -16 -5 -12 -10 28 -29 26 -13 45 -25 42 -28 -2
-3 -14 1 -26 7 -12 6 -24 10 -26 7 -3 -2 13 -12 34 -20 22 -9 46 -23 55 -31 9
-9 26 -20 39 -25 19 -8 20 -10 4 -10 -10 -1 -33 7 -50 18 -17 10 -42 22 -56
26 -24 7 -24 7 -7 -12 24 -27 21 -35 -8 -21 -13 6 -24 14 -23 17 2 21 -4 31
-19 31 -14 0 -15 -2 -4 -9 10 -6 10 -10 1 -13 -7 -2 7 -17 31 -33 76 -52 91
-78 20 -34 -32 20 -60 18 -31 -2 13 -9 13 -10 0 -6 -8 2 -14 11 -14 20 1 9 -5
18 -13 21 -8 4 -11 1 -7 -5 3 -6 -12 -1 -35 10 -48 25 -47 25 -55 5 -3 -8 -2
-12 4 -9 6 3 10 1 10 -5 0 -6 5 -8 12 -4 7 4 8 3 4 -4 -4 -6 13 -31 36 -56 24
-24 57 -59 73 -78 l30 -33 -29 25 c-16 14 -46 44 -68 66 -38 41 -102 67 -91
37 3 -8 13 -11 27 -8 17 5 18 4 6 -4 -8 -6 -10 -11 -5 -11 6 0 21 -10 35 -21
23 -19 21 -19 -15 2 -103 58 -147 81 -150 77 -2 -2 10 -12 28 -21 39 -22 86
-87 62 -87 -9 0 -13 5 -10 10 3 6 -2 10 -13 10 -22 0 -55 33 -45 45 5 4 2 5
-5 1 -6 -4 -12 -3 -12 3 0 6 -14 18 -30 26 -17 9 -28 20 -25 24 3 5 -2 11 -10
15 -8 3 -15 11 -15 18 0 10 2 10 9 -1 5 -7 11 -9 13 -5 3 5 -3 17 -14 27 -10
9 -18 15 -18 12 0 -3 -9 3 -20 12 -11 10 -20 21 -20 24 0 11 38 -2 51 -17 6
-8 15 -14 20 -14 18 0 8 16 -18 32 -22 14 -24 18 -10 18 10 0 15 4 12 10 -3 6
1 7 9 4 9 -3 16 -2 16 3 0 5 -19 18 -42 28 -24 10 -75 33 -113 51 -114 52
-272 103 -272 87 0 -7 4 -13 9 -13 4 0 8 -7 8 -15 0 -9 12 -27 27 -41 15 -14
19 -22 10 -18 -9 3 -17 1 -17 -4 0 -6 -26 0 -57 13 -41 16 -62 20 -70 13 -7
-6 -13 -6 -13 -1 0 11 -86 37 -97 30 -5 -3 -26 -2 -46 3 -25 5 -35 5 -30 -3 4
-6 0 -8 -10 -4 -10 4 -17 2 -17 -5 0 -7 -5 -6 -15 2 -13 11 -14 10 -9 -4 4
-11 13 -15 25 -11 13 4 19 2 17 -7 -2 -7 7 -14 20 -16 12 -2 22 1 22 7 0 6 -5
11 -12 11 -6 0 -9 2 -6 5 8 8 73 -29 73 -41 0 -5 11 -21 24 -34 l25 -25 -19
30 -19 30 35 -28 c19 -16 90 -65 159 -109 146 -94 295 -205 399 -297 95 -84
162 -153 155 -160 -2 -3 -21 13 -42 34 -108 116 -281 255 -503 404 -100 66
-139 86 -123 60 5 -8 1 -8 -14 0 -28 15 -37 14 -23 -2 6 -8 9 -16 6 -19 -5 -4
217 -219 266 -258 11 -8 58 -58 106 -110 48 -52 71 -80 52 -62 -47 44 -57 40
-20 -7 17 -21 31 -42 31 -46 0 -6 -48 46 -100 110 -13 17 -103 109 -200 205
-140 141 -185 179 -224 194 -35 14 -51 16 -54 8 -2 -8 -9 -8 -25 2 -12 7 -40
12 -62 11 -22 -1 -46 2 -53 8 -18 14 -25 2 -12 -22 14 -27 -1 -28 -18 -1 -7
11 -16 20 -21 20 -5 0 5 -27 21 -60 31 -60 34 -98 4 -43 -8 15 -15 24 -16 19
0 -5 -7 -2 -16 5 -15 12 -16 11 -9 -9 7 -23 7 -23 -19 -7 -14 10 -26 14 -26
10 0 -4 -7 -1 -17 6 -15 13 -16 11 -10 -16 5 -22 1 -18 -14 15 -11 24 -24 47
-28 50 -5 3 -11 14 -14 25 -3 11 -4 -1 -3 -27 2 -43 1 -46 -18 -38 -15 5 -20
16 -19 34 2 29 -11 35 -21 10 -4 -11 -10 -13 -19 -6 -6 5 -25 10 -41 10 -16 0
-35 7 -41 16 -7 9 -20 16 -29 16 -9 0 -16 6 -16 13 0 8 -3 7 -10 -3 -8 -12
-11 -12 -28 3 -10 9 -26 17 -35 17 -12 0 -17 9 -18 33 -1 30 -1 31 -9 7 -4
-14 -8 -20 -9 -13 -1 6 -10 9 -21 6 -16 -4 -20 0 -20 21 0 16 -4 25 -10 21 -6
-3 -10 4 -11 17 0 13 -3 17 -6 11 -8 -21 -22 -15 -16 7 3 11 2 28 -3 37 -10
25 -11 37 -3 48 4 6 7 14 8 18 0 14 38 57 50 57 6 0 11 4 11 9 0 18 76 85 116
102 26 12 57 40 86 76 52 68 62 91 47 109 -9 11 -15 10 -32 -6 -35 -33 -44
-25 -43 38 2 64 10 84 31 75 9 -3 22 0 30 7 8 7 15 8 15 3 0 -14 42 -7 95 17
42 20 47 24 30 31 -17 7 -18 8 -2 8 10 1 20 -6 23 -14 4 -10 13 -13 25 -10 11
4 19 2 19 -4 0 -6 -7 -11 -16 -11 -19 0 -13 -24 7 -28 8 -1 20 7 27 19 12 18
12 23 0 30 -7 5 -21 7 -31 5 -9 -2 -15 0 -11 5 3 5 15 9 27 9 28 0 54 16 44
27 -5 4 -13 1 -18 -7 -8 -12 -12 -12 -16 -2 -4 10 -8 10 -20 0 -14 -11 -15
-10 -10 7 4 11 2 27 -3 35 -9 13 -11 13 -20 0 -9 -13 -10 -13 -10 0 0 8 -11
28 -25 44 -28 33 -33 45 -9 25 13 -11 14 -9 8 17 -3 16 -11 33 -15 38 -12 13
-12 29 0 22 4 -3 6 6 3 21 -4 23 -2 25 17 20 17 -4 21 -1 21 20 0 18 4 24 15
19 8 -3 15 -1 15 4 0 14 22 12 57 -5 16 -8 38 -16 49 -18 10 -1 24 -6 30 -9
23 -15 113 -19 171 -9 118 22 205 89 265 206 26 51 31 71 32 143 2 60 6 86 17
93 19 12 42 11 34 -1 -3 -5 2 -11 12 -11 60 -4 81 -3 76 4 -7 11 40 8 57 -4
11 -8 8 -9 -15 -5 -27 5 -28 4 -8 -6 18 -8 28 -7 49 7 17 11 24 12 18 4 -6
-11 -5 -11 9 0 24 19 13 26 -43 26 -33 0 -55 6 -66 17 -16 16 -16 17 7 11 22
-6 23 -5 9 12 -14 17 -14 18 7 7 26 -15 33 -15 33 -2 0 5 -11 12 -25 16 -14 3
-22 11 -19 16 4 5 15 7 27 4 11 -2 16 -1 11 3 -5 5 -20 12 -34 16 -20 5 -22 4
-10 -5 12 -9 10 -10 -10 -4 -53 14 -55 24 -5 23 28 -1 60 -8 72 -15 18 -11 22
-11 27 2 8 22 8 26 -4 19 -5 -3 -52 1 -105 10 -53 8 -101 13 -106 10 -5 -4 -9
-1 -9 5 0 6 -11 8 -27 4 -19 -4 -24 -3 -15 4 11 7 9 10 -7 15 -12 3 -19 1 -15
-4 3 -5 2 -9 -3 -9 -12 0 -40 20 -29 20 6 0 1 6 -10 14 -14 11 -21 11 -26 3
-5 -9 -11 -7 -20 5 -9 12 -32 19 -71 22 -71 5 -87 16 -26 17 24 1 36 3 25 6
-39 10 -283 -35 -339 -63 -45 -22 -58 -19 -47 11 7 18 6 25 -2 25 -9 0 -9 3 0
12 7 7 12 19 12 27 -1 13 -4 12 -16 -4 -8 -11 -13 -30 -11 -43 3 -16 0 -22 -9
-18 -7 3 -18 -2 -24 -10 -16 -18 -31 -18 -24 1 3 8 11 13 17 12 5 -1 14 13 18
32 6 28 3 37 -14 52 -12 10 -17 18 -12 19 6 0 11 12 11 28 1 15 4 49 7 75 4
38 2 47 -8 43 -16 -6 -27 18 -19 39 4 8 1 15 -7 15 -7 0 -9 3 -6 7 4 3 -1 15
-10 26 -10 11 -12 17 -5 13 8 -5 12 0 12 14 0 12 -4 19 -9 16 -11 -7 38 96 49
104 4 3 10 17 14 33 3 15 11 27 17 27 6 0 8 4 5 8 -2 4 -1 14 4 21 10 17 33 4
26 -15 -3 -8 -1 -14 4 -14 5 0 12 9 15 20 3 11 12 20 18 20 7 0 3 7 -7 15 -16
12 -17 17 -6 30 8 10 11 32 7 61 -3 26 -1 41 3 34 11 -17 30 -3 30 21 0 11 5
17 10 14 5 -3 10 -2 10 3 0 6 -7 12 -15 16 -8 3 -15 11 -15 18 0 9 3 8 10 -2
8 -12 10 -11 10 7 0 17 4 21 18 16 15 -6 15 -5 3 10 -7 9 -9 17 -3 17 14 0 -5
60 -29 91 -19 24 -19 24 -3 -15 17 -42 13 -56 -11 -36 -12 10 -13 15 -4 21 10
6 10 11 0 23 -7 8 -10 24 -6 35 5 16 3 20 -9 15 -9 -3 -16 -1 -16 6 0 6 4 9 9
6 5 -3 11 12 15 34 3 22 10 40 15 40 5 0 12 14 16 30 4 17 11 28 16 24 5 -3 9
-1 9 5 0 5 -5 13 -10 16 -5 3 -10 11 -10 16 0 6 4 8 9 5 5 -4 12 12 16 33 3
22 15 47 26 57 10 9 19 23 19 29 0 19 127 224 174 280 23 28 66 82 95 120 157
204 292 314 465 379 106 40 195 34 256 -17 28 -24 28 -25 7 -31 -11 -3 -23 -3
-26 -1 -2 3 1 5 7 5 7 0 12 5 12 11 0 6 -6 9 -14 6 -8 -3 -16 -1 -18 5 -2 5
-23 11 -46 12 -23 1 -37 -1 -31 -4 7 -5 5 -10 -6 -14 -10 -3 -25 -1 -33 6 -9
8 -13 8 -9 2 4 -7 -2 -14 -13 -17 -11 -3 -20 -1 -20 4 0 5 -4 9 -10 9 -5 0 -7
-6 -4 -14 4 -10 -1 -15 -13 -14 -21 1 -73 -19 -73 -28 0 -3 23 -3 52 -1 29 3
46 2 39 -2 -9 -6 -1 -11 23 -15 20 -4 36 -11 36 -15 0 -5 -19 -5 -42 0 -48 11
-120 3 -145 -17 -16 -13 -15 -13 8 -5 15 5 31 6 40 0 8 -5 33 -9 57 -9 23 0
42 -4 42 -9 0 -5 -27 -7 -61 -4 -60 6 -61 6 -48 -15 7 -11 17 -18 21 -16 5 3
24 -8 44 -25 39 -35 36 -41 -6 -11 -21 15 -39 19 -76 15 -63 -5 -62 -5 -40
-14 17 -7 17 -8 1 -24 -16 -16 -15 -18 14 -28 17 -6 28 -15 25 -20 -3 -5 0 -9
5 -9 6 0 11 5 11 10 0 6 5 10 11 10 6 0 9 -7 6 -15 -4 -8 -2 -17 3 -20 4 -3
10 0 12 7 3 8 13 4 29 -12 17 -18 32 -24 54 -22 17 2 27 0 23 -4 -4 -4 -3 -13
4 -21 9 -11 7 -12 -8 -7 -18 7 -18 6 1 -17 l20 -24 -22 18 c-12 11 -27 16 -32
12 -6 -3 -14 0 -17 9 -3 8 -12 17 -20 20 -9 3 -12 1 -9 -5 4 -5 1 -18 -7 -27
-12 -16 -11 -16 6 -2 15 11 20 12 23 3 3 -7 11 -13 19 -13 8 0 17 -7 20 -15 4
-8 17 -15 29 -15 13 0 27 -5 31 -11 4 -8 0 -9 -15 -4 -12 4 -21 2 -21 -4 0 -6
4 -11 10 -11 5 0 10 -3 9 -7 -3 -18 14 -52 27 -57 8 -3 14 -13 14 -22 0 -10 3
-14 7 -11 9 9 73 -59 73 -78 0 -12 13 -15 63 -17 34 0 48 -3 29 -5 -20 -3 -30
-8 -26 -15 5 -8 1 -9 -12 -3 -10 4 -28 9 -40 10 -11 1 -25 4 -31 8 -6 4 -23 3
-38 -3 -18 -7 -33 -7 -46 0 -14 8 -19 7 -19 -2 0 -10 -2 -10 -8 -1 -4 7 -25
15 -46 17 -35 5 -37 4 -24 -12 11 -15 11 -15 -2 -6 -14 11 -100 26 -100 18 0
-2 17 -11 37 -19 26 -11 64 -15 125 -13 103 2 126 -8 39 -18 -33 -3 -58 -10
-55 -15 3 -5 0 -9 -5 -9 -6 0 -11 4 -11 9 0 10 -48 2 -55 -9 -3 -4 9 -10 26
-14 17 -3 28 -10 24 -16 -3 -5 -1 -10 5 -10 6 0 8 -4 5 -10 -3 -5 -1 -10 4
-10 6 0 11 -5 11 -11 0 -6 -7 -9 -15 -6 -8 4 -17 2 -20 -3 -8 -13 -62 -13 -70
-1 -3 5 -19 12 -35 16 -17 4 -30 11 -30 16 0 9 -82 1 -115 -12 -16 -6 -13 -8
15 -9 85 -4 82 -18 -5 -19 -49 -1 -97 -6 -105 -12 -11 -7 8 -9 69 -6 72 3 81
2 66 -10 -11 -7 -14 -13 -8 -13 6 0 16 7 23 15 16 19 34 20 27 1 -4 -11 3 -16
26 -19 18 -2 0 -5 -40 -5 -70 -2 -100 -15 -72 -33 8 -5 12 -9 9 -9 -39 -6 -88
-4 -84 2 7 11 -86 0 -161 -18 -16 -4 -17 -3 -5 5 8 5 11 13 7 17 -3 4 -13 1
-22 -6 -12 -10 -13 -15 -3 -28 11 -13 10 -14 -2 -10 -22 8 -72 -24 -65 -41 3
-9 3 -12 -1 -8 -4 4 -14 -7 -21 -24 -7 -18 -11 -34 -8 -37 2 -3 8 3 11 12 5
14 9 15 15 4 7 -10 9 -8 9 7 1 17 2 18 10 4 8 -15 -11 -95 -21 -85 -2 2 -5 -9
-6 -25 -1 -17 2 -27 8 -24 5 4 7 11 4 16 -4 5 -2 9 2 9 5 0 19 20 31 45 12 25
26 45 31 45 5 0 12 7 15 16 4 10 2 13 -7 8 -6 -4 -1 5 12 19 14 15 32 27 40
27 13 -1 13 -3 -3 -15 -10 -7 -15 -18 -12 -23 3 -6 1 -12 -6 -14 -8 -3 -9 -6
-1 -11 12 -7 35 23 47 61 4 12 3 22 -2 22 -20 0 -87 -33 -99 -49 -10 -13 -12
-14 -13 -1 0 20 17 46 26 38 3 -4 23 1 44 12 21 11 40 16 44 13 3 -4 6 2 7 13
0 10 3 14 5 8 3 -6 17 -9 32 -7 21 4 24 2 12 -6 -12 -8 -12 -11 3 -17 10 -4
28 -2 40 3 13 6 41 7 67 3 43 -7 44 -8 10 -10 -19 -1 -29 -4 -23 -7 22 -8 14
-25 -8 -18 -15 5 -19 4 -14 -5 6 -9 3 -9 -13 -1 -14 8 -29 8 -52 0 -32 -12
-55 -4 -31 10 10 6 9 10 -5 15 -10 4 -15 4 -11 0 4 -4 2 -13 -5 -21 -7 -9 -8
-17 -1 -24 29 -29 403 -55 403 -28 0 8 4 8 13 1 6 -5 21 -12 32 -15 11 -2 0
-6 -25 -7 -72 -3 -95 -17 -36 -21 68 -6 244 21 250 38 4 9 -1 12 -17 10 -12
-2 -16 -2 -9 0 6 3 12 8 12 13 0 11 -29 40 -40 40 -4 0 -11 8 -15 18 -5 14 -4
15 6 5 15 -15 95 -17 104 -3 3 6 1 10 -5 10 -6 0 -9 4 -5 9 3 6 -10 13 -30 17
-19 3 -33 10 -30 14 3 5 14 6 24 3 10 -3 22 0 25 6 4 6 16 11 28 11 14 0 18 5
14 15 -3 10 1 15 11 15 15 0 15 2 0 18 -18 20 -22 33 -9 31 22 -4 29 4 30 33
0 18 6 34 11 36 6 2 11 10 11 17 0 23 41 125 50 125 16 0 -9 -179 -40 -282
-34 -110 -43 -129 -60 -123 -12 5 -13 4 -2 -6 14 -15 16 -33 2 -24 -5 3 -10 2
-10 -3 0 -13 -106 -55 -119 -48 -5 4 -12 2 -16 -4 -3 -5 -2 -10 3 -10 5 0 12
-9 15 -21 4 -16 2 -19 -11 -14 -9 4 -42 9 -72 13 -53 6 -54 7 -20 13 25 5 15
7 -37 6 -51 0 -73 -4 -73 -12 0 -8 -14 -12 -39 -11 -22 0 -37 4 -35 8 3 5 -1
8 -10 8 -8 0 -16 -4 -18 -10 -1 -5 -18 -10 -35 -12 -41 -3 -42 -12 -3 -28 27
-11 33 -11 45 6 14 18 16 18 28 2 13 -16 15 -16 32 0 10 9 15 12 11 5 -3 -6 1
-14 11 -16 14 -4 14 -5 -3 -6 -12 0 -25 -8 -28 -16 -4 -11 0 -15 12 -13 9 2
16 -2 15 -8 -3 -19 36 -9 64 17 15 13 21 16 13 5 -14 -17 -12 -18 33 -15 49 4
55 1 35 -19 -7 -7 -17 -8 -30 -1 -25 13 -50 -2 -73 -45 -11 -20 -23 -36 -27
-36 -5 0 -8 -4 -8 -10 0 -5 9 -10 21 -10 14 0 19 5 16 14 -4 11 -1 13 10 9 11
-4 14 -3 9 6 -10 16 37 71 54 61 9 -5 9 -13 1 -28 -9 -16 -7 -23 12 -36 l22
-17 -24 12 c-18 9 -25 8 -32 -2 -14 -22 -11 -42 6 -35 8 3 22 9 30 12 12 5 14
2 8 -12 -6 -17 -5 -17 10 -5 9 7 14 17 11 22 -3 5 0 9 5 9 6 0 11 -8 11 -17 0
-14 2 -15 9 -4 5 7 13 11 19 7 5 -3 20 21 32 54 22 60 45 77 57 43 3 -10 14
-27 24 -38 16 -18 17 -30 10 -98 -9 -77 -10 -78 -60 -125 -28 -26 -51 -54 -51
-63 0 -8 -7 -25 -16 -38 -16 -22 -16 -23 3 -12 11 5 34 26 52 46 38 43 42 27
5 -21 -23 -29 -24 -34 -9 -34 14 0 15 -3 5 -15 -15 -18 1 -20 18 -3 9 9 12 9
12 0 0 -7 -7 -15 -15 -18 -8 -4 -15 -12 -15 -20 0 -8 -6 -14 -14 -14 -12 0
-26 -20 -26 -36 0 -2 21 12 47 32 42 32 77 52 93 52 3 0 21 6 40 14 19 8 40
13 47 11 6 -2 23 3 37 12 33 22 127 29 119 9 -3 -7 -8 -13 -11 -12 -21 2 -31
-4 -26 -16 6 -16 -58 -42 -76 -31 -17 10 -11 -10 8 -25 9 -8 27 -14 40 -12 12
2 22 -1 22 -7 0 -6 -3 -11 -7 -11 -5 0 -13 -11 -20 -25 -13 -29 -11 -31 10
-11 12 13 17 13 37 -1 22 -15 22 -17 5 -30 -11 -7 -13 -13 -7 -13 7 0 11 -3
11 -7 -4 -24 4 -30 36 -27 23 1 38 -3 43 -13 8 -13 10 -13 16 2 3 10 2 23 -3
29 -5 6 -8 25 -7 41 1 17 -3 36 -8 43 -5 8 -4 12 4 12 9 0 8 5 -3 18 -10 10
-17 27 -17 36 0 12 -5 16 -15 12 -10 -3 -15 1 -15 13 0 11 6 21 13 23 16 6 16
99 0 153 -40 136 -41 143 -49 225 -3 36 -9 69 -11 74 -8 12 -17 183 -13 231 0
11 1 46 0 77 -1 38 4 65 16 82 17 27 17 28 -4 179 -4 31 -13 62 -20 69 -7 7
-12 45 -12 97 0 48 -6 109 -13 136 -8 28 -15 97 -16 155 -1 58 -6 109 -11 114
-6 6 -10 20 -10 33 l0 23 -2545 0 -2545 0 0 -2400z m3970 1828 c-8 -3 -25 -15
-37 -27 -12 -12 -27 -21 -33 -21 -5 0 -10 -7 -10 -15 0 -13 -18 -20 -42 -16
-5 0 -8 -6 -8 -14 0 -8 -7 -15 -15 -15 -30 0 -76 -31 -86 -58 -10 -26 -11 -26
-25 -8 -7 11 -17 17 -20 13 -4 -4 -13 -2 -21 4 -10 9 -13 8 -13 -4 0 -9 -5
-19 -11 -23 -9 -5 -10 8 -7 46 6 56 34 95 62 84 8 -3 37 6 67 20 29 14 58 26
65 26 6 0 24 10 39 22 15 12 38 22 51 23 13 0 29 6 36 13 11 11 14 8 18 -15 4
-19 1 -30 -10 -35z m-523 -185 c-7 -16 -5 -27 7 -44 9 -14 16 -18 16 -10 0 8
3 11 7 8 3 -4 12 -2 20 4 10 9 13 8 13 -4 0 -8 3 -23 7 -33 5 -14 3 -16 -11
-11 -14 5 -17 3 -12 -8 3 -8 3 -29 -1 -45 -4 -25 -8 -28 -20 -19 -11 10 -15 8
-20 -10 -3 -13 -11 -20 -19 -17 -8 3 -14 1 -14 -4 0 -5 -7 -7 -15 -4 -8 4 -15
1 -15 -6 0 -6 -4 -8 -10 -5 -5 3 -10 17 -10 31 0 15 4 23 10 19 6 -4 8 -11 5
-16 -4 -5 -2 -9 3 -9 6 0 8 17 5 40 -4 27 -2 40 6 40 8 0 10 8 6 19 -3 11 -1
22 4 25 6 4 8 13 5 20 -3 7 2 20 10 29 28 28 18 43 -23 37 -12 -1 -13 1 -2 14
12 14 15 14 36 -2 18 -14 21 -21 12 -39z m-229 35 c7 -7 27 -13 44 -13 27 0
33 -5 44 -40 l14 -40 -4 43 c-2 23 0 40 4 37 4 -3 10 2 14 10 9 26 25 16 31
-19 5 -23 1 -46 -10 -69 -12 -26 -14 -40 -6 -55 6 -11 7 -31 2 -48 l-8 -29 -7
28 c-3 15 -4 33 0 39 4 7 3 8 -5 4 -7 -4 -15 2 -20 16 -9 21 -10 20 -11 -12
-1 -33 -2 -33 -12 -12 -6 12 -15 22 -19 22 -9 0 -4 -34 7 -52 4 -7 3 -8 -4 -4
-7 4 -12 1 -12 -8 0 -8 -5 -18 -11 -22 -13 -8 -3 89 12 118 6 10 5 19 -1 23
-6 3 -15 -6 -20 -20 -11 -30 -30 -25 -30 9 0 28 -18 46 -47 46 -16 0 -23 6
-23 20 0 33 54 52 78 28z m-175 -10 c4 -10 8 -9 16 2 9 12 12 13 20 1 6 -9 11
-10 15 -2 22 35 42 -24 26 -74 -8 -25 -16 -32 -27 -28 -11 4 -14 2 -11 -8 3
-8 -4 -18 -15 -24 -25 -12 -32 -86 -8 -77 9 3 12 1 7 -6 -4 -7 -14 -12 -21
-12 -8 0 -19 -8 -24 -19 -14 -25 -9 -120 5 -114 6 2 14 -6 18 -19 9 -34 7 -60
-3 -54 -5 3 -7 15 -4 25 3 10 0 22 -5 25 -6 4 -8 -2 -5 -14 3 -11 0 -20 -6
-20 -6 0 -11 7 -11 16 0 8 -4 12 -10 9 -6 -4 -11 6 -11 22 -7 149 -5 178 12
152 6 -10 9 -8 9 9 0 13 -4 21 -9 18 -4 -3 -17 2 -27 10 -10 9 -13 13 -6 9 8
-4 12 4 12 29 0 24 5 36 14 36 10 0 12 12 8 51 -3 37 -1 54 9 60 19 12 26 11
32 -3z m497 -743 c0 -6 -37 -91 -51 -117 -5 -10 -9 -27 -9 -38 0 -11 -7 -20
-15 -20 -19 0 -19 -11 -1 -35 13 -19 15 -18 30 15 l15 35 -5 -40 c-3 -22 -7
-51 -10 -65 -3 -18 -2 -21 5 -11 7 11 11 6 16 -22 4 -20 5 -43 2 -49 -5 -14
17 -40 26 -31 3 3 3 -4 0 -16 -3 -11 -9 -18 -14 -15 -6 3 -8 -12 -7 -34 2 -22
8 -40 13 -39 17 3 12 -37 -7 -51 -10 -7 -18 -22 -18 -33 0 -10 -4 -19 -10 -19
-5 0 -10 -6 -10 -14 0 -7 -7 -19 -15 -26 -12 -10 -15 -9 -15 6 -1 15 -4 13
-16 -9 -12 -23 -18 -26 -30 -16 -11 9 -14 8 -14 -5 0 -10 -5 -14 -10 -11 -6 4
-8 10 -5 15 3 5 0 12 -6 16 -8 4 -9 -3 -4 -27 6 -32 6 -33 -8 -14 -23 33 -46
152 -26 140 8 -6 8 -2 0 13 -17 31 -14 47 4 32 20 -16 29 -7 17 17 -12 23 -25
89 -15 80 3 -4 15 1 25 10 17 15 21 15 29 3 8 -11 8 -8 3 10 -20 72 -40 97
-28 35 4 -23 2 -35 -5 -35 -6 0 -11 11 -11 25 0 14 -4 25 -10 25 -5 0 -10 7
-10 16 0 8 4 13 9 10 15 -10 34 23 27 49 -15 62 -15 76 0 35 8 -25 22 -52 30
-60 13 -13 14 -10 8 30 -4 25 -11 51 -17 58 -6 8 -6 12 1 12 6 0 13 8 15 18 3
11 5 7 6 -10 2 -44 18 -41 32 6 7 25 16 43 20 40 4 -2 17 23 29 56 12 33 26
60 31 60 5 0 9 -2 9 -5z m1328 -1907 c12 0 22 -5 22 -12 0 -6 5 -4 10 4 7 11
10 11 10 2 0 -7 4 -10 10 -7 5 3 29 -3 52 -13 24 -11 63 -22 88 -25 25 -3 37
-3 27 0 -9 2 -15 8 -12 13 6 10 71 -4 91 -21 12 -9 17 -10 23 -1 4 7 17 9 36
3 26 -7 27 -9 10 -14 -11 -3 -36 -5 -55 -3 -20 2 -46 -4 -60 -13 -14 -10 -21
-11 -17 -3 9 14 -5 16 -18 3 -6 -6 -32 -6 -65 -1 l-55 9 53 -3 c28 -2 52 0 52
3 0 3 -31 13 -68 22 -56 12 -69 13 -69 2 0 -9 7 -11 16 -8 11 4 13 3 6 -4 -11
-11 -95 -3 -95 10 0 4 -10 6 -22 4 -12 -3 -28 1 -36 7 -8 7 -31 20 -51 29 -21
10 -29 18 -18 18 9 1 25 -3 35 -8 44 -24 92 -35 92 -21 0 6 -10 10 -22 10 -13
1 -34 7 -48 15 -24 14 -24 14 15 9 22 -4 50 -6 63 -6z m-770 -325 c26 -15 97
-59 157 -98 133 -86 149 -95 110 -59 -78 70 -136 126 -133 129 2 2 41 -30 88
-71 47 -42 135 -109 196 -150 107 -71 143 -89 128 -61 -4 6 3 1 16 -12 28 -28
84 -53 104 -45 8 3 33 -7 55 -22 23 -15 85 -39 139 -55 53 -15 88 -28 77 -28
-44 -2 -228 51 -310 89 -48 22 -90 40 -93 40 -3 0 14 -13 38 -29 64 -43 208
-164 215 -181 5 -12 -29 13 -55 40 -3 3 -30 23 -60 45 -30 22 -57 42 -60 45
-11 12 -458 309 -511 339 -31 17 -59 29 -62 26 -4 -3 -5 -2 -2 2 3 3 -21 24
-52 45 -66 43 -55 52 15 11z m-747 -112 c0 -12 2 -13 6 -2 5 11 7 11 14 0 7
-12 9 -12 9 0 0 9 9 4 25 -13 25 -27 41 -35 29 -13 -4 6 2 3 14 -7 12 -11 22
-25 22 -33 0 -15 30 -51 30 -36 0 11 20 -20 20 -32 0 -5 -5 -3 -10 5 -5 8 -10
11 -10 6 0 -5 7 -17 16 -27 12 -13 13 -22 5 -36 -8 -14 -10 -15 -11 -3 0 9
-14 28 -31 42 -29 26 -30 26 -24 5 5 -18 0 -15 -25 13 -37 42 -40 31 -4 -16
15 -19 22 -34 16 -34 -6 0 -18 9 -26 21 -13 20 -14 18 -9 -22 4 -35 2 -41 -7
-29 -10 12 -11 11 -7 -7 3 -13 1 -23 -4 -23 -5 0 -9 8 -9 18 -1 16 -1 16 -11
-1 -5 -9 -7 -22 -4 -27 3 -5 -1 -7 -9 -4 -8 3 -18 16 -22 27 -7 22 -8 21 -15
-3 l-7 -25 -2 25 c-1 23 -2 23 -10 5 -8 -18 -9 -17 -9 8 -1 16 -5 26 -11 22
-6 -3 -13 1 -16 10 -6 14 -8 14 -20 -2 -7 -10 -14 -26 -14 -35 0 -10 -5 -18
-10 -18 -6 0 -10 6 -9 13 1 6 0 21 -1 32 -2 13 -5 8 -9 -13 -3 -18 -10 -33
-16 -33 -5 0 -15 -5 -21 -9 -6 -6 -15 -2 -24 10 -7 10 -17 17 -22 14 -4 -3 -8
1 -8 9 0 16 -31 18 -42 2 -4 -6 -8 -1 -9 10 l0 20 -9 -20 c-8 -19 -9 -19 -9
-1 -1 10 7 25 16 32 10 7 15 16 10 20 -4 4 -22 -10 -41 -31 -22 -24 -40 -36
-49 -32 -17 6 -42 -17 -33 -31 3 -5 -1 -9 -9 -9 -18 0 -18 0 0 44 9 20 13 43
11 50 -3 7 -1 15 4 18 6 4 10 1 10 -6 0 -8 4 -8 15 1 8 7 15 19 15 27 0 9 6
13 15 9 9 -3 20 3 27 14 7 11 17 20 22 20 4 0 3 -7 -4 -15 -6 -8 -9 -19 -6
-24 10 -16 46 20 46 46 0 16 8 25 25 29 14 4 29 4 32 0 3 -3 12 -1 20 5 10 9
13 8 13 0 0 -8 6 -7 16 3 22 23 34 20 34 -8 0 -14 4 -27 9 -30 9 -6 7 37 -3
52 -12 20 19 32 47 17 27 -14 36 -8 17 11 -7 7 -1 11 20 11 20 0 30 -5 31 -16z"/>
<path d="M6720 4760 c0 -22 5 -40 11 -40 5 0 7 -5 4 -10 -4 -6 -10 -8 -15 -5
-5 3 -14 -4 -20 -15 -8 -16 -8 -20 3 -20 8 0 20 -7 27 -15 7 -8 25 -15 41 -15
29 0 29 0 29 -65 0 -59 2 -65 20 -65 11 0 23 -7 26 -15 4 -11 21 -15 59 -15
40 0 54 -4 59 -16 4 -9 4 -19 1 -22 -3 -3 -5 0 -5 6 0 27 -28 9 -38 -25 -10
-32 -9 -41 8 -69 14 -21 20 -49 20 -87 0 -50 2 -55 20 -50 23 6 27 23 5 23
-11 0 -15 12 -15 52 0 40 3 49 12 40 7 -7 25 -12 41 -12 24 0 27 3 18 14 -7 8
-8 17 -3 20 16 10 22 -7 16 -42 -5 -24 -2 -37 7 -43 13 -7 17 -94 5 -106 -2
-3 -25 -5 -50 -5 -61 -1 -58 -34 7 -67 18 -10 27 -22 27 -38 0 -16 6 -23 20
-23 11 0 23 -7 26 -15 7 -18 30 -20 37 -2 3 6 3 -2 0 -19 -3 -17 0 -41 6 -52
8 -15 8 -21 0 -24 -8 -3 -8 -10 2 -26 12 -19 11 -24 -4 -39 -16 -16 -17 -15
-17 25 0 41 -1 42 -35 42 -19 0 -35 5 -35 11 0 7 -8 9 -20 5 -11 -3 -29 -9
-40 -12 -15 -5 -20 -2 -20 12 0 15 -2 16 -12 5 -10 -11 -10 -14 0 -18 8 -3 12
-26 12 -64 l0 -59 58 2 57 3 0 -32 c0 -17 3 -35 8 -39 4 -4 7 0 7 9 0 10 7 17
15 17 18 0 19 -23 4 -53 -9 -16 -9 -22 0 -25 6 -2 11 -11 11 -20 1 -15 2 -15
14 1 7 9 21 17 31 17 16 0 16 -2 1 -25 -22 -33 -20 -55 4 -55 20 0 20 -1 -2
-40 -16 -28 -30 -40 -45 -40 -13 0 -23 -6 -23 -14 0 -7 -7 -19 -15 -26 -8 -7
-15 -19 -15 -27 0 -12 9 -14 43 -9 23 3 34 3 25 0 -14 -4 -18 -16 -18 -48 0
-36 -6 -48 -40 -81 -22 -21 -40 -47 -40 -57 0 -26 17 -22 37 10 29 47 51 62
88 62 l35 0 0 64 c0 42 -4 66 -12 69 -10 4 -10 6 0 6 19 1 14 39 -5 44 -17 4
-17 5 0 6 15 1 17 16 17 161 0 137 -2 160 -15 160 -13 0 -14 4 -4 21 8 15 8
24 0 32 -6 6 -11 21 -11 33 0 12 -7 27 -15 34 -8 7 -15 19 -15 26 0 18 46 19
53 2 3 -7 6 41 6 107 1 82 -3 125 -11 133 -8 8 -9 12 -1 12 8 0 11 43 11 139
1 112 -2 141 -14 145 -18 7 -18 24 1 60 10 19 15 58 15 122 l0 94 -123 0 -124
0 4 -57 c3 -55 2 -56 -10 -27 -6 17 -22 42 -33 57 -21 26 -27 27 -108 27 l-86
0 0 -40z"/>
<path d="M1410 4453 c-28 -11 -89 -78 -94 -103 -2 -14 -5 -25 -6 -25 -1 0 -3
-28 -4 -62 -1 -34 -5 -65 -8 -69 -8 -7 -2 -95 11 -184 5 -30 7 -66 4 -79 -2
-13 2 -31 10 -40 7 -9 19 -28 26 -43 8 -15 27 -42 42 -60 24 -28 30 -31 39
-18 7 11 10 12 10 2 0 -8 -9 -16 -20 -19 -11 -3 -20 -14 -20 -24 0 -10 9 -24
20 -31 11 -7 20 -21 20 -30 0 -16 6 -15 50 9 29 16 45 30 39 34 -21 13 2 29
41 29 27 0 48 8 67 24 l28 24 -36 -3 c-48 -4 -73 10 -39 23 14 5 34 11 44 13
11 2 21 10 24 17 3 11 0 12 -17 3 -11 -7 -21 -8 -21 -3 0 11 50 47 77 56 12 4
27 14 35 24 12 15 10 15 -14 -1 -16 -10 -28 -13 -28 -9 0 10 -73 -4 -102 -19
-24 -12 -31 -11 -22 2 4 7 0 9 -12 6 -11 -4 -32 -9 -49 -13 -16 -4 -36 -11
-42 -17 -9 -7 -13 -5 -13 6 0 8 18 33 40 55 22 22 40 44 40 50 0 5 7 15 15 22
9 7 13 20 10 28 -3 9 0 12 9 9 10 -4 13 -1 10 7 -4 11 -14 10 -46 -6 -41 -20
-56 -19 -42 4 5 7 10 24 12 38 2 14 7 27 13 28 5 2 7 8 3 13 -3 5 0 9 7 9 8 0
7 5 -2 17 -10 11 -10 14 -1 9 7 -4 12 -1 12 9 0 9 -4 13 -10 10 -5 -3 -10 -1
-10 4 0 6 5 11 10 11 6 0 10 8 10 18 0 11 8 26 18 35 23 21 39 22 22 2 -7 -8
-8 -15 -2 -15 5 0 15 7 22 15 7 8 18 15 24 14 25 -3 34 2 39 22 5 19 4 19 -18
5 -15 -10 -26 -12 -30 -6 -8 12 -51 2 -85 -19 -17 -12 -22 -12 -16 -2 5 8 3
17 -5 22 -9 7 -4 8 16 4 28 -6 29 -6 11 9 -11 9 -34 19 -53 22 -18 3 -33 9
-33 13 0 13 142 54 149 43 4 -7 12 -8 21 -2 22 14 -29 30 -58 19 -13 -5 -28
-7 -32 -4 -5 3 -18 0 -29 -7 -16 -9 -23 -10 -32 -1 -9 9 -4 15 22 27 19 8 28
15 21 15 -7 1 -11 5 -7 10 12 21 -49 38 -85 24z"/>
<path d="M3933 3602 c-7 -15 -19 -43 -27 -62 l-16 -35 5 35 c3 19 2 29 -1 23
-10 -22 -22 -14 -18 10 3 15 0 12 -10 -9 -8 -17 -13 -49 -12 -70 2 -22 4 -45
5 -52 1 -7 6 -10 11 -7 22 13 11 -111 -15 -166 -13 -29 -22 -55 -20 -58 7 -6
35 20 35 32 0 6 10 30 21 55 17 34 19 48 11 66 -7 16 -7 35 1 64 17 65 23 55
29 -50 1 -18 -2 -42 -6 -53 -6 -15 -5 -17 3 -5 5 8 12 12 15 9 3 -3 -2 -16
-11 -28 -12 -18 -17 -20 -24 -10 -6 10 -9 10 -9 2 0 -45 61 9 67 59 4 40 13
50 13 14 0 -15 4 -25 8 -22 5 3 8 44 7 91 -1 47 2 88 7 91 14 9 9 24 -7 18
-18 -7 -18 -1 -5 45 13 46 4 52 -14 10 -15 -33 -15 -33 -16 -7 0 37 -13 42
-27 10z"/>
<path d="M4388 3503 c-16 -8 -28 -19 -28 -24 0 -6 -7 -17 -15 -26 -9 -8 -13
-18 -10 -21 3 -3 12 3 19 14 8 10 17 16 21 12 4 -3 -2 -19 -14 -35 -11 -15
-21 -44 -23 -63 -2 -19 -9 -41 -15 -48 -16 -16 -17 -32 -2 -32 5 0 8 4 4 9 -3
5 -1 12 5 16 5 3 10 -3 10 -13 0 -27 -35 -36 -37 -10 -1 11 2 31 7 44 6 15 6
24 0 24 -5 0 -12 -10 -15 -22 -14 -63 -24 -105 -31 -127 -6 -19 -4 -22 7 -15
8 4 20 9 27 10 8 2 17 6 20 10 4 4 -1 4 -10 1 -11 -4 -18 -1 -18 7 0 19 32 44
53 41 10 -2 17 3 18 13 0 10 3 12 6 5 7 -19 45 20 38 40 -4 8 1 27 10 41 10
14 14 26 10 26 -13 0 -31 -25 -42 -60 -11 -32 -11 -29 -7 30 7 90 13 112 26
104 7 -4 8 -3 4 4 -4 6 -2 21 4 33 15 27 11 29 -22 12z"/>
<path d="M2591 3349 c0 -9 5 -22 13 -28 7 -6 16 -24 19 -40 3 -16 14 -36 23
-46 10 -9 18 -28 19 -40 l1 -23 -28 20 -28 19 0 -21 c0 -30 18 -60 35 -60 8 0
15 -5 15 -11 0 -5 -4 -8 -8 -5 -10 6 -8 -36 3 -78 6 -21 5 -27 -4 -22 -17 11
-14 -20 4 -38 9 -9 11 -17 5 -21 -5 -3 -10 -16 -10 -28 0 -20 0 -20 -15 -1
-14 19 -14 19 -16 -1 -1 -11 -2 -27 -3 -35 -1 -8 3 -21 8 -27 11 -17 -6 -17
-22 -1 -9 9 -12 9 -12 1 0 -7 5 -15 10 -18 6 -4 8 -11 5 -16 -4 -5 -3 -15 1
-21 12 -19 13 -51 2 -65 -6 -7 -5 -14 2 -18 6 -3 8 -10 5 -15 -3 -5 6 -17 20
-26 14 -9 25 -22 25 -30 0 -7 8 -18 18 -23 14 -8 23 -5 36 10 9 11 14 24 11
29 -3 5 -7 47 -9 94 -2 47 -8 92 -15 100 -9 11 -9 15 0 18 11 4 19 47 22 123
1 11 -3 31 -7 45 l-9 25 21 -25 c30 -35 27 -19 -8 50 -32 64 -36 75 -20 65 16
-10 12 11 -5 25 -8 7 -15 16 -15 21 0 5 13 -5 30 -23 16 -18 30 -28 30 -22 0
7 -16 26 -35 43 -19 17 -37 41 -39 53 -2 13 -9 22 -15 21 -6 -2 -11 6 -11 18
0 12 -8 23 -19 26 -11 3 -22 12 -24 22 -4 15 -5 15 -6 0z"/>
<path d="M4080 3092 c0 -7 -9 -12 -20 -12 -12 0 -20 -7 -20 -17 0 -14 2 -15 9
-5 6 11 10 10 15 -4 4 -10 4 -15 0 -12 -3 4 -14 -3 -24 -14 l-17 -22 -7 22
c-5 14 -12 19 -22 15 -11 -4 -12 -8 -4 -13 8 -5 4 -15 -15 -34 -29 -29 -40
-33 -31 -11 3 8 1 15 -4 15 -6 0 -10 -5 -10 -10 0 -6 -16 -18 -35 -27 -19 -9
-35 -23 -35 -30 0 -8 -7 -16 -15 -19 -8 -4 -13 -10 -10 -14 3 -5 2 -16 -1 -25
-5 -12 -9 -13 -14 -5 -4 7 -10 8 -13 4 -3 -5 1 -14 8 -21 11 -10 24 -4 67 30
29 23 55 44 58 48 3 3 16 10 29 14 16 5 20 10 11 15 -9 5 -8 8 2 13 9 3 14 -2
15 -14 1 -10 -2 -19 -6 -19 -14 0 -101 -70 -101 -82 0 -6 10 -3 23 6 12 9 54
35 92 58 39 23 76 48 83 55 8 7 22 18 33 23 10 6 19 15 19 20 0 5 -15 1 -32
-10 -48 -29 -58 -33 -65 -26 -7 7 37 45 53 46 6 0 12 12 12 26 0 18 -4 22 -11
15 -17 -17 -31 -13 -17 4 7 9 10 18 6 22 -3 3 -6 1 -6 -5z"/>
<path d="M2424 2662 c3 -5 -43 -16 -102 -25 -59 -10 -108 -22 -110 -27 -2 -6
-10 -10 -17 -10 -21 0 -85 -32 -85 -43 0 -5 -6 -7 -14 -4 -9 3 -21 -4 -30 -19
-12 -18 -13 -24 -4 -24 7 -1 2 -7 -12 -14 -14 -8 -28 -12 -32 -10 -3 2 -10 0
-13 -6 -4 -6 -15 -8 -25 -5 -10 3 -21 2 -24 -3 -8 -13 20 -35 34 -27 5 3 10 1
10 -6 0 -6 8 -9 20 -6 11 3 18 1 14 -4 -3 -5 -1 -9 5 -9 5 0 12 6 15 13 4 6 4
2 2 -10 -4 -25 4 -29 21 -12 20 20 32 1 22 -34 -12 -45 -5 -153 15 -212 41
-119 210 -223 339 -208 46 6 127 40 127 54 0 5 11 11 25 15 14 3 35 18 47 33
11 14 18 18 15 9 -3 -10 -2 -20 3 -23 8 -5 22 20 46 80 7 19 8 19 11 -2 2 -12
11 -24 20 -27 11 -4 14 -2 9 9 -3 9 0 15 9 15 8 0 15 5 15 10 0 6 -7 10 -15
10 -8 0 -15 5 -15 11 0 5 5 7 10 4 6 -3 10 -1 10 4 0 6 -4 11 -8 11 -4 0 -7
34 -6 75 3 148 -33 247 -122 332 -44 41 -63 53 -88 53 -17 0 -49 9 -71 20 -41
21 -59 25 -51 12z m264 -490 c2 -7 -23 -38 -55 -70 -65 -65 -114 -85 -203 -84
-59 1 -91 12 -157 55 -48 30 -55 42 -20 32 19 -5 18 -3 -5 12 -16 10 -28 22
-28 26 0 11 91 -40 107 -60 6 -8 16 -12 22 -9 5 3 17 -1 25 -10 9 -9 22 -17
29 -18 6 -1 17 -5 23 -8 10 -7 104 21 114 33 3 3 25 20 49 37 24 18 40 32 36
32 -5 0 2 11 15 25 24 26 41 28 48 7z"/>
<path d="M7162 2498 c-7 -7 -12 -31 -12 -55 0 -32 -4 -43 -15 -43 -12 0 -15
-14 -15 -65 0 -63 -1 -65 -25 -65 -20 0 -25 5 -25 25 0 15 -6 25 -14 25 -8 0
-16 5 -18 12 -5 14 -38 3 -38 -13 0 -6 9 -13 20 -16 29 -8 24 -27 -10 -44
l-31 -14 31 -48 c16 -26 30 -53 30 -59 0 -7 14 -9 40 -5 30 4 40 2 40 -9 0 -8
-10 -14 -24 -14 -48 0 -52 -6 -48 -80 6 -93 -3 -136 -28 -143 -12 -3 -20 -14
-20 -26 0 -14 -6 -21 -20 -21 -11 0 -20 5 -20 12 0 6 -3 8 -7 4 -4 -4 -6 -27
-4 -51 2 -40 0 -45 -19 -45 -20 0 -21 -1 -3 -24 11 -15 30 -26 48 -28 23 -2
32 -10 40 -33 12 -36 29 -55 47 -55 9 1 7 5 -4 14 -10 7 -18 18 -18 24 0 6 8
13 18 15 16 4 16 5 0 6 -15 1 -18 11 -18 66 l0 65 40 0 c34 0 40 -3 40 -21 0
-27 51 -109 68 -109 9 0 12 39 12 160 0 118 -3 160 -12 160 -9 0 -9 3 0 12 18
18 17 498 -1 498 -7 0 -18 -5 -25 -12z"/>
<path d="M5935 2074 c-113 -27 -139 -49 -128 -107 7 -36 35 -50 97 -48 28 0
53 -4 57 -11 9 -14 -33 -38 -68 -38 -13 0 -35 -12 -48 -26 -50 -54 -18 -114
60 -114 48 0 82 -25 49 -36 -57 -18 -77 -29 -99 -56 -20 -24 -23 -33 -15 -49
6 -11 8 -24 4 -30 -3 -6 3 -13 15 -16 29 -7 36 -39 15 -70 -25 -39 -25 -154 1
-229 4 -13 18 -24 36 -28 37 -7 37 -26 3 -95 -23 -46 -26 -61 -22 -121 5 -59
10 -75 38 -110 18 -23 44 -46 56 -51 31 -11 30 -22 -6 -59 -16 -17 -30 -36
-30 -42 0 -6 -8 -17 -17 -24 -15 -10 -16 -15 -5 -25 6 -7 12 -19 12 -27 0 -15
40 -57 59 -63 7 -3 8 -15 3 -34 -5 -16 -13 -28 -18 -26 -27 11 -50 -108 -23
-125 5 -3 9 -14 9 -25 0 -10 6 -19 14 -19 7 0 20 -8 27 -17 10 -11 10 -14 2
-9 -7 4 -13 2 -13 -4 0 -6 -10 -8 -25 -4 -15 4 -25 2 -25 -5 0 -6 10 -11 21
-11 17 0 19 -3 10 -14 -10 -12 -14 -50 -12 -108 2 -44 -1 -48 -23 -32 -11 8
-24 14 -28 14 -12 0 3 -52 19 -68 16 -17 17 -32 1 -32 -7 0 -21 -18 -30 -40
l-17 -40 655 0 654 0 0 825 c0 823 0 825 -20 825 -11 0 -23 7 -26 15 -4 8 -12
15 -20 15 -10 0 -14 -15 -14 -60 0 -55 -2 -60 -25 -66 -14 -3 -25 -12 -25 -20
0 -10 -16 -14 -57 -16 -50 -1 -52 -2 -15 -5 34 -3 42 -8 42 -24 0 -16 -7 -19
-40 -19 -22 0 -40 4 -40 9 0 6 -12 3 -27 -5 -34 -17 -50 -18 -57 -1 -3 8 -11
5 -24 -10 -11 -13 -25 -23 -31 -23 -6 0 -11 -15 -11 -32 0 -52 -10 -76 -33
-82 -22 -6 -22 -6 3 -26 l25 -20 -41 0 c-35 0 -43 -4 -48 -22 -9 -34 -7 -45 4
-28 8 13 10 12 10 -3 0 -10 -7 -25 -15 -33 -8 -9 -15 -11 -15 -6 0 5 -8 12
-17 16 -10 3 -24 9 -30 12 -8 3 -13 -1 -13 -11 0 -10 -11 -26 -25 -37 -14 -11
-25 -26 -25 -34 0 -8 -7 -14 -15 -14 -16 0 -19 -17 -9 -44 8 -22 23 -20 45 6
11 11 22 18 27 13 4 -4 1 -10 -5 -12 -7 -3 -13 -14 -13 -24 0 -19 6 -20 129
-17 l129 3 -1 -57 c-1 -32 -4 -58 -7 -58 -3 0 -20 -15 -39 -32 -33 -30 -34
-31 -15 -45 16 -12 17 -15 4 -23 -9 -6 -17 -5 -22 3 -6 9 -14 6 -27 -10 -11
-13 -27 -23 -38 -24 -15 0 -14 -2 5 -9 27 -12 29 -30 2 -30 -26 0 -26 -16 0
-23 25 -7 18 -31 -22 -69 -28 -28 -58 -37 -58 -18 0 6 -7 10 -15 10 -11 0 -13
-8 -8 -30 3 -19 1 -30 -6 -30 -6 0 -11 -9 -11 -20 0 -16 -7 -20 -30 -20 -31 0
-41 -14 -16 -23 15 -6 28 -57 15 -57 -5 0 -9 -18 -9 -40 0 -30 4 -40 16 -40
12 0 14 -9 12 -37 -2 -31 -7 -39 -26 -41 -21 -3 -22 -1 -13 17 14 25 14 61 1
61 -5 0 -10 7 -10 15 0 11 -11 15 -40 15 -36 0 -40 3 -40 25 0 23 -4 25 -40
25 -25 0 -40 -5 -40 -12 0 -9 -3 -8 -10 2 -8 13 -11 12 -24 -5 -14 -18 -15
-18 -16 -2 0 9 -5 17 -10 17 -6 0 -20 9 -32 19 -20 19 -20 22 -5 59 18 46 10
97 -22 138 -13 16 -18 31 -12 38 26 34 14 146 -16 146 -16 0 -17 42 -2 57 14
14 2 183 -12 183 -5 0 -9 4 -9 10 0 5 -14 29 -31 53 -31 44 -31 45 -13 73 14
21 19 46 19 99 -1 78 -13 108 -69 168 -31 31 -35 41 -26 57 6 11 14 20 18 20
4 0 13 21 20 46 10 38 10 56 -4 111 -9 35 -14 79 -11 96 5 33 -16 152 -34 198
-8 20 -20 28 -47 33 -46 7 -44 7 -117 -10z"/>
<path d="M2754 2026 c-6 -13 -10 -36 -8 -52 1 -16 0 -23 -3 -16 -2 6 -12 12
-21 12 -14 0 -14 -2 -3 -9 8 -5 11 -16 8 -25 -4 -9 -7 -20 -8 -24 0 -4 -6 -13
-12 -21 -9 -11 -9 -15 0 -18 7 -2 9 -11 6 -20 -4 -11 -2 -14 5 -9 7 4 15 0 19
-10 4 -10 0 -20 -12 -26 -15 -9 -14 -12 14 -26 18 -8 30 -20 27 -27 -2 -7 9
-22 25 -34 16 -12 29 -16 29 -10 0 6 6 9 14 6 7 -3 24 5 37 17 14 13 35 22 47
21 12 -1 22 4 22 12 0 7 4 13 10 13 5 0 7 7 3 16 -4 10 1 22 11 30 17 12 16
14 -5 35 -15 15 -24 18 -27 11 -2 -7 -8 -12 -13 -12 -6 0 -8 4 -5 9 3 5 -6 11
-20 14 l-25 4 21 -19 c25 -23 26 -32 1 -19 -10 6 -21 7 -25 4 -3 -3 -6 1 -6
11 0 15 -2 15 -25 0 -20 -13 -25 -13 -25 -3 0 11 -2 11 -10 -1 -13 -21 -13 -3
1 22 8 15 8 19 0 14 -6 -4 -11 0 -11 9 0 9 3 14 8 12 4 -3 7 11 8 30 1 32 -1
34 -13 18 -7 -10 -16 -15 -20 -12 -3 4 -3 7 1 7 4 0 2 9 -4 21 -9 15 -8 24 1
35 7 9 9 18 3 24 -5 5 -13 0 -20 -14z"/>
<path d="M4282 1364 c-18 -8 -5 -24 20 -24 12 0 18 -3 15 -7 -4 -3 1 -12 11
-19 16 -12 15 -13 -7 -14 -24 0 -24 0 -5 -16 16 -13 16 -15 2 -10 -10 3 -18 2
-18 -2 0 -4 73 -25 163 -48 228 -58 333 -91 400 -126 32 -16 61 -27 64 -25 2
3 -5 10 -16 17 -12 6 -21 15 -21 21 0 6 6 6 19 0 10 -6 21 -8 24 -4 4 3 13 0
22 -7 12 -10 15 -10 15 0 0 7 7 10 18 5 12 -4 14 -3 6 5 -6 6 -20 13 -30 15
-11 1 -18 7 -17 13 1 6 -10 20 -25 31 -84 65 -140 91 -227 107 -31 6 -36 9
-20 14 15 5 6 11 -40 25 -125 36 -320 63 -353 49z"/>
<path d="M4186 1246 c6 -15 47 -33 184 -81 36 -13 116 -43 179 -69 118 -47
156 -51 105 -9 l-29 24 29 -11 c16 -6 42 -20 58 -31 16 -12 32 -18 35 -15 4 3
17 -1 30 -9 13 -9 23 -12 23 -8 -1 11 -80 69 -91 66 -4 -2 -5 5 -2 14 6 14 7
14 19 -1 6 -10 15 -13 18 -8 14 23 -257 110 -416 133 -153 23 -149 22 -142 5z"/>
<path d="M1716 465 c-15 -11 -17 -22 -12 -53 5 -32 2 -44 -19 -67 -25 -30 -24
-51 2 -41 8 3 28 -3 43 -14 23 -16 30 -18 37 -7 4 7 24 19 43 27 42 17 59 33
56 51 -4 23 -26 59 -37 59 -21 0 -39 26 -26 39 8 8 6 11 -8 11 -11 0 -29 2
-40 5 -11 3 -28 -2 -39 -10z"/>
<path d="M2072 338 c-26 -16 -36 -18 -42 -8 -6 9 -14 9 -36 -3 -25 -13 -26
-16 -11 -22 9 -4 17 -13 17 -20 0 -8 9 -16 19 -20 10 -3 21 -15 24 -26 5 -17
13 -20 44 -19 46 3 103 -9 103 -21 0 -17 29 -9 35 10 5 18 6 18 43 0 35 -18
38 -18 49 -2 15 19 18 77 4 69 -5 -3 -14 1 -21 9 -16 20 -40 19 -40 -1 0 -13
-4 -12 -27 4 -19 13 -35 17 -48 12 -11 -4 -30 -3 -42 3 -17 8 -20 14 -13 27
19 35 -9 38 -58 8z"/>
</g>
</svg>
